<svg xmlns="http://www.w3.org/2000/svg" viewBox="0 0 512 512">
  <rect width="512" height="512" rx="110" fill="#f5e9dc"/>
  <rect x="70" y="70" width="372" height="372" rx="75" fill="#fffdf7"/>

  <rect x="125" y="105" width="262" height="210" rx="18" fill="#a487a9"/>
  <rect x="140" y="120" width="232" height="180" rx="10" fill="#8d9bd1"/>

  <circle cx="320" cy="160" r="28" fill="#f3d7a8"/>
  <circle cx="330" cy="153" r="28" fill="#8d9bd1"/>

  <rect x="105" y="335" width="190" height="65" rx="20" fill="#e5cfd0"/>
  <rect x="120" y="318" width="115" height="45" rx="16" fill="#f5e9dc"/>

  <rect x="300" y="335" width="105" height="15" rx="7" fill="#896b52"/>
  <rect x="320" y="350" width="12" height="55" fill="#765844"/>
  <rect x="375" y="350" width="12" height="55" fill="#765844"/>

  <path d="M90 290 Q65 250 95 225 Q115 265 110 295" fill="#82a477"/>
  <path d="M100 250 Q120 205 145 235 Q125 270 105 280" fill="#6f966b"/>

  <text x="256" y="438"
        text-anchor="middle"
        font-family="serif"
        font-size="32"
        fill="#554942">✦</text>
</svg>